<mxfile host="app.diagrams.net" modified="2023-02-22T02:22:30.037Z" agent="5.0 (Windows NT 10.0; Win64; x64) AppleWebKit/537.36 (KHTML, like Gecko) Chrome/110.0.0.0 Safari/537.36" etag="B3r2V4gEzz4juZFbv-HV" version="20.8.20" type="github">
  <diagram name="Page-1" id="RTdwuWRAFBx2o3Khn1zZ">
    <mxGraphModel dx="1232" dy="1146" grid="1" gridSize="10" guides="1" tooltips="1" connect="1" arrows="1" fold="1" page="1" pageScale="1" pageWidth="850" pageHeight="1100" math="0" shadow="0">
      <root>
        <mxCell id="0" />
        <mxCell id="1" parent="0" />
        <mxCell id="c3NugJ-Xs9fRrgVayrPQ-6" style="edgeStyle=orthogonalEdgeStyle;rounded=0;orthogonalLoop=1;jettySize=auto;html=1;exitX=0.5;exitY=1;exitDx=0;exitDy=0;entryX=0.5;entryY=0;entryDx=0;entryDy=0;endArrow=none;endFill=0;" edge="1" parent="1" source="c3NugJ-Xs9fRrgVayrPQ-1" target="c3NugJ-Xs9fRrgVayrPQ-5">
          <mxGeometry relative="1" as="geometry" />
        </mxCell>
        <mxCell id="c3NugJ-Xs9fRrgVayrPQ-1" value="Movie" style="whiteSpace=wrap;html=1;align=center;" vertex="1" parent="1">
          <mxGeometry x="220" y="340" width="100" height="40" as="geometry" />
        </mxCell>
        <mxCell id="c3NugJ-Xs9fRrgVayrPQ-2" value="Actor" style="whiteSpace=wrap;html=1;align=center;" vertex="1" parent="1">
          <mxGeometry x="550" y="460" width="100" height="40" as="geometry" />
        </mxCell>
        <mxCell id="c3NugJ-Xs9fRrgVayrPQ-10" style="rounded=0;orthogonalLoop=1;jettySize=auto;html=1;exitX=0.25;exitY=1;exitDx=0;exitDy=0;entryX=0.5;entryY=0;entryDx=0;entryDy=0;endArrow=none;endFill=0;" edge="1" parent="1" source="c3NugJ-Xs9fRrgVayrPQ-3" target="c3NugJ-Xs9fRrgVayrPQ-9">
          <mxGeometry relative="1" as="geometry" />
        </mxCell>
        <mxCell id="c3NugJ-Xs9fRrgVayrPQ-11" style="edgeStyle=none;rounded=0;orthogonalLoop=1;jettySize=auto;html=1;exitX=0.75;exitY=1;exitDx=0;exitDy=0;entryX=0.5;entryY=0;entryDx=0;entryDy=0;endArrow=none;endFill=0;" edge="1" parent="1" source="c3NugJ-Xs9fRrgVayrPQ-3" target="c3NugJ-Xs9fRrgVayrPQ-8">
          <mxGeometry relative="1" as="geometry" />
        </mxCell>
        <mxCell id="c3NugJ-Xs9fRrgVayrPQ-3" value="Director" style="whiteSpace=wrap;html=1;align=center;" vertex="1" parent="1">
          <mxGeometry x="220" y="770" width="100" height="40" as="geometry" />
        </mxCell>
        <mxCell id="c3NugJ-Xs9fRrgVayrPQ-4" value="ProductionCompany" style="whiteSpace=wrap;html=1;align=center;" vertex="1" parent="1">
          <mxGeometry x="490" y="340" width="140" height="40" as="geometry" />
        </mxCell>
        <mxCell id="c3NugJ-Xs9fRrgVayrPQ-7" style="edgeStyle=orthogonalEdgeStyle;rounded=0;orthogonalLoop=1;jettySize=auto;html=1;exitX=0.5;exitY=1;exitDx=0;exitDy=0;entryX=0.5;entryY=0;entryDx=0;entryDy=0;endArrow=none;endFill=0;" edge="1" parent="1" source="c3NugJ-Xs9fRrgVayrPQ-5" target="c3NugJ-Xs9fRrgVayrPQ-3">
          <mxGeometry relative="1" as="geometry" />
        </mxCell>
        <mxCell id="c3NugJ-Xs9fRrgVayrPQ-5" value="directed by" style="shape=rhombus;perimeter=rhombusPerimeter;whiteSpace=wrap;html=1;align=center;" vertex="1" parent="1">
          <mxGeometry x="210" y="540" width="120" height="60" as="geometry" />
        </mxCell>
        <mxCell id="c3NugJ-Xs9fRrgVayrPQ-8" value="dateofbirth" style="ellipse;whiteSpace=wrap;html=1;align=center;" vertex="1" parent="1">
          <mxGeometry x="290" y="860" width="100" height="40" as="geometry" />
        </mxCell>
        <mxCell id="c3NugJ-Xs9fRrgVayrPQ-9" value="&lt;u&gt;name&lt;/u&gt;" style="ellipse;whiteSpace=wrap;html=1;align=center;" vertex="1" parent="1">
          <mxGeometry x="160" y="860" width="100" height="40" as="geometry" />
        </mxCell>
        <mxCell id="c3NugJ-Xs9fRrgVayrPQ-13" style="edgeStyle=none;rounded=0;orthogonalLoop=1;jettySize=auto;html=1;exitX=0.5;exitY=1;exitDx=0;exitDy=0;entryX=0.25;entryY=0;entryDx=0;entryDy=0;endArrow=none;endFill=0;" edge="1" parent="1" source="c3NugJ-Xs9fRrgVayrPQ-12" target="c3NugJ-Xs9fRrgVayrPQ-1">
          <mxGeometry relative="1" as="geometry" />
        </mxCell>
        <mxCell id="c3NugJ-Xs9fRrgVayrPQ-12" value="&lt;u&gt;title&lt;/u&gt;" style="ellipse;whiteSpace=wrap;html=1;align=center;" vertex="1" parent="1">
          <mxGeometry x="150" y="240" width="100" height="40" as="geometry" />
        </mxCell>
        <mxCell id="c3NugJ-Xs9fRrgVayrPQ-14" value="&lt;u&gt;title&lt;/u&gt;" style="ellipse;whiteSpace=wrap;html=1;align=center;" vertex="1" parent="1">
          <mxGeometry x="270" y="230" width="100" height="40" as="geometry" />
        </mxCell>
      </root>
    </mxGraphModel>
  </diagram>
</mxfile>
